<?xml version="1.0" standalone="no"?>
<!DOCTYPE svg PUBLIC "-//W3C//DTD SVG 20010904//EN"
 "http://www.w3.org/TR/2001/REC-SVG-20010904/DTD/svg10.dtd">
<svg version="1.0" xmlns="http://www.w3.org/2000/svg"
 width="106.000000pt" height="106.000000pt" viewBox="0 0 106.000000 106.000000"
 preserveAspectRatio="xMidYMid meet">
<metadata>
Created by potrace 1.11, written by Peter Selinger 2001-2013
</metadata>
<g transform="translate(0.000000,106.000000) scale(0.100000,-0.100000)"
fill="#000000" stroke="none">
<path d="M433 1050 c-237 -47 -413 -259 -419 -505 -4 -145 36 -257 130 -361
104 -117 236 -177 393 -178 51 0 94 2 97 5 3 3 2 18 -2 34 -8 28 -9 29 -70 26
-170 -7 -342 86 -425 229 -130 226 -37 531 195 643 76 36 116 45 207 45 92 0
152 -15 229 -59 121 -68 191 -170 226 -331 5 -23 10 -26 33 -22 15 3 29 7 32
9 10 10 -21 119 -51 182 -100 206 -347 328 -575 283z"/>
<path d="M437 939 c-38 -9 -118 -47 -151 -72 -19 -14 -19 -15 1 -40 l20 -26
33 24 c73 54 214 75 305 45 102 -33 200 -133 229 -234 76 -262 -151 -510 -414
-451 -94 21 -200 104 -235 183 -20 45 -27 48 -62 29 l-23 -13 21 -39 c73 -138
204 -223 355 -230 279 -14 489 238 429 515 -30 139 -162 271 -310 309 -47 13
-145 13 -198 0z"/>
<path d="M679 771 c-16 -27 -16 -29 16 -54 48 -38 87 -124 87 -188 -1 -64 -40
-149 -86 -184 -104 -79 -226 -77 -320 5 -59 52 -80 102 -79 187 0 67 -1 72
-25 83 -31 14 -41 1 -43 -55 -4 -150 56 -257 176 -314 152 -72 337 -6 412 147
55 112 30 263 -57 350 -52 52 -63 55 -81 23z"/>
</g>
</svg>
